<?xml version="1.0" standalone="no"?>
<!DOCTYPE svg PUBLIC "-//W3C//DTD SVG 1.1//EN" "http://www.w3.org/Graphics/SVG/1.1/DTD/svg11.dtd" >
<svg xmlns="http://www.w3.org/2000/svg">
<metadata></metadata>
<defs>
<font id="tensomedium" horiz-adv-x="550" >
<font-face units-per-em="1000" ascent="750" descent="-250" />
<missing-glyph horiz-adv-x="209" />
<glyph unicode="&#xfb01;" horiz-adv-x="588" d="M401 0v413h-179v-413h-123v413h-81v84h81v67q0 83 48 129.5t145 46.5t141 -44t22 -111l-111 -12q24 85 -50 85q-72 0 -72 -95v-66h302v-497h-123z" />
<glyph unicode="&#xfb03;" horiz-adv-x="913" d="M421 0v413h-199v-413h-123v413h-81v84h81v62q0 171 178 171q75 0 114 -29t37 -78q31 117 186 117q97 0 141 -44t22 -111l-111 -12q24 85 -50 85q-72 0 -72 -95v-66h305v-497h-123v413h-182v-413h-123zM222 558v-61h199v67q0 17 1 25v-3l-1 -1l-93 -12q25 75 -47 75 q-34 0 -46.5 -21.5t-12.5 -68.5z" />
<glyph horiz-adv-x="0" />
<glyph horiz-adv-x="333" />
<glyph unicode=" "  horiz-adv-x="209" />
<glyph unicode="&#x09;" horiz-adv-x="209" />
<glyph unicode="&#xa0;" horiz-adv-x="209" />
<glyph unicode="!" horiz-adv-x="261" d="M97 215q0 23 -16.5 194t-16.5 266h133q0 -95 -16.5 -266t-16.5 -194h-67zM68 0v126h125v-126h-125z" />
<glyph unicode="&#x22;" horiz-adv-x="382" d="M77 440l-37 275h124l-37 -275h-50zM255 440l-37 275h124l-37 -275h-50z" />
<glyph unicode="#" horiz-adv-x="660" d="M349 0l33 178h-162l-33 -178h-80l33 178h-107v79h122l30 160h-103v80h118l33 178h80l-33 -178h162l33 178h81l-33 -178h105v-80h-120l-30 -160h101v-79h-116l-33 -178h-81zM265 417l-30 -160h162l30 160h-162z" />
<glyph unicode="$" d="M249 -107v107q-106 6 -164 60.5t-42 147.5l107 12q-11 -53 13.5 -87.5t85.5 -41.5v197q-34 12 -55 20.5t-51 26.5t-47 37t-30 50t-13 69q0 79 51 127.5t145 55.5v108h56v-108q111 -7 160 -67.5t34 -146.5l-114 -11q13 123 -80 136v-192q1 -1 4 -1q36 -12 59 -21t53.5 -26 t48 -36t30 -48.5t12.5 -65.5q0 -80 -53.5 -133t-153.5 -61v-108h-56zM395 179q0 56 -90 90v-178q90 11 90 88zM169 500q0 -57 80 -88v173q-80 -12 -80 -85z" />
<glyph unicode="%" horiz-adv-x="731" d="M228 527q0 102 -59 102t-59 -102q0 -104 59 -104t59 104zM307 528q0 -85 -37.5 -124.5t-100.5 -39.5q-64 0 -101.5 40t-37.5 123q0 160 139 160q138 0 138 -159zM210 0l228 675h83l-228 -675h-83zM622 151q0 102 -59 102t-59 -102q0 -104 59 -104t59 104zM701 152 q0 -85 -37.5 -124.5t-100.5 -39.5q-64 0 -101.5 40t-37.5 123q0 160 139 160q138 0 138 -159z" />
<glyph unicode="&#x26;" horiz-adv-x="669" d="M28 172q0 58 36.5 102.5t101.5 86.5q-41 85 -41 151q0 73 50 124t141 51q80 0 126 -39t46 -104q0 -36 -15 -67t-45.5 -57t-56 -42.5t-66.5 -39.5q29 -47 63 -89q31 -41 73 -81q54 70 54 146q0 29 -7 50l93 -11q7 -24 7 -49q0 -100 -75 -191q44 -27 88 -27q28 0 49 12 l-10 -92q-22 -12 -66 -12q-71 0 -142 46q-78 -52 -176 -52q-102 0 -165 54t-63 130zM268 78q50 0 90 21q-38 35 -77 85q-41 51 -71 99q-69 -46 -69 -100q0 -47 36.5 -76t90.5 -29zM235 518q0 -40 28 -103q33 18 49 28t35.5 26t27.5 32.5t8 36.5q0 30 -19 48t-52 18 q-38 0 -57.5 -24.5t-19.5 -61.5z" />
<glyph unicode="'" horiz-adv-x="204" d="M77 440l-37 275h124l-37 -275h-50z" />
<glyph unicode="(" horiz-adv-x="283" d="M205 -153q-7 4 -18 12t-39.5 43.5t-50.5 81t-40 129.5t-18 185q0 100 17 183t41.5 130.5t49 80t41.5 44.5l17 11l57 -56q-5 -4 -13 -11.5t-29 -39t-37 -72t-29 -113t-13 -157.5t12.5 -157.5t30.5 -114t35.5 -71.5t30.5 -41l12 -11z" />
<glyph unicode=")" horiz-adv-x="283" d="M78 -153l-57 56q5 4 13 11.5t29 39.5t37 72.5t29 113.5t13 158t-12.5 157t-30 113.5t-35.5 71t-30 40.5l-13 11l57 56q7 -4 18 -12t39.5 -43t50.5 -81t40 -129.5t18 -183.5q0 -101 -17 -184.5t-41.5 -130.5t-49 -80t-41.5 -45z" />
<glyph unicode="*" horiz-adv-x="539" d="M315 740v-174l162 56l27 -86l-165 -52l103 -138l-73 -52l-100 140l-100 -139l-73 53l103 137l-164 53l28 86l162 -56v172h90z" />
<glyph unicode="+" d="M40 224v94h186v186h94v-186h190v-94h-190v-190h-94v190h-186z" />
<glyph unicode="," horiz-adv-x="248" d="M60 0v135h130v-163q0 -56 -32 -99t-93 -60l-24 55q43 8 64 39.5t21 72.5v20h-66z" />
<glyph unicode="-" horiz-adv-x="380" d="M57 208v110h267v-110h-267z" />
<glyph unicode="." horiz-adv-x="239" d="M57 0v135h125v-135h-125z" />
<glyph unicode="/" horiz-adv-x="357" d="M24 -42l200 756h110l-202 -756h-108z" />
<glyph unicode="0" horiz-adv-x="582" d="M49 341q0 346 243 346q241 0 241 -345q0 -183 -65 -268.5t-177 -85.5q-114 0 -178 86t-64 267zM177 340q0 -249 114 -249q115 0 115 249q0 136 -30.5 190t-84.5 54t-84 -54t-30 -190z" />
<glyph unicode="1" horiz-adv-x="484" d="M61 0v99h146v411q-49 -52 -165 -52v105q37 -3 72.5 5t71 35.5t52.5 71.5h98v-576h126v-99h-401z" />
<glyph unicode="2" horiz-adv-x="543" d="M48 0v89q49 33 94 69t98 88.5t84.5 114t31.5 120.5q0 56 -25.5 84.5t-67.5 28.5q-40 0 -63.5 -27t-23.5 -84q0 -26 6 -50.5t12 -36.5l5 -12l-130 12q-22 40 -22 95q0 81 57.5 138.5t164.5 57.5q103 0 161.5 -55t58.5 -146q0 -113 -86.5 -217.5t-198.5 -167.5v-2h294v-99 h-450z" />
<glyph unicode="3" horiz-adv-x="541" d="M40 192l110 15q-14 -53 15 -89.5t82 -36.5q52 0 84 37.5t32 109.5q0 63 -29 96t-81 33q-51 0 -90 -35l-57 63l223 191h-264v99h395v-108l-169 -144q86 9 145.5 -44.5t59.5 -151.5q0 -106 -71 -172.5t-176 -66.5q-100 0 -165.5 58.5t-43.5 145.5z" />
<glyph unicode="4" horiz-adv-x="555" d="M27 150v106l274 419h140v-426h77v-99h-77v-150h-127v150h-287zM132 249h182v274z" />
<glyph unicode="5" horiz-adv-x="528" d="M62 332l38 343h346v-99h-250l-18 -159q37 47 110 47q89 0 146 -64.5t57 -165.5q0 -109 -65.5 -177.5t-172.5 -68.5q-101 0 -165 58t-47 146l111 15q-12 -55 17 -90.5t80 -35.5q49 0 79 37t30 111q0 69 -28.5 107t-80.5 38q-71 0 -90 -55z" />
<glyph unicode="6" horiz-adv-x="569" d="M48 334q0 171 68.5 262t194.5 91q99 0 154 -52.5t41 -135.5l-127 -12q7 55 -15 81t-58 26q-57 0 -92.5 -62.5t-36.5 -193.5q42 92 151 92q85 0 140.5 -59t55.5 -155q0 -97 -59.5 -162.5t-169.5 -65.5q-122 0 -184.5 92t-62.5 254zM182 247q0 -42 23 -96q32 -70 91 -70 q49 0 72 39.5t23 92.5q0 52 -23.5 87.5t-76.5 35.5q-45 0 -77 -25.5t-32 -63.5z" />
<glyph unicode="7" horiz-adv-x="512" d="M35 473v202h459v-114q-213 -325 -240 -561h-137q10 86 57 207t111 224q53 85 109 141v4h-244v-103h-115z" />
<glyph unicode="8" horiz-adv-x="564" d="M43 183q0 116 122 167q-89 61 -89 158q0 85 61.5 132t150.5 47q90 0 146.5 -45.5t56.5 -122.5q0 -52 -29.5 -88.5t-76.5 -55.5q62 -31 98.5 -73t36.5 -108q0 -87 -64 -146.5t-171 -59.5q-100 0 -171 51t-71 144zM390 176q0 20 -7.5 37t-17 28t-30 23t-33 18t-39.5 18 t-39 17q-63 -43 -63 -121q0 -59 36 -87t87 -28q52 0 79 27.5t27 67.5zM206 518q0 -22 8 -39t29.5 -32t33.5 -22t44 -22q52 41 52 105q0 40 -21.5 63t-61.5 23q-41 0 -62.5 -21.5t-21.5 -54.5z" />
<glyph unicode="9" horiz-adv-x="563" d="M46 460q0 97 57.5 162t165.5 65q122 0 184 -92t62 -254q0 -172 -68 -262.5t-194 -90.5q-97 0 -150.5 52.5t-39.5 136.5l111 11q-9 -55 16.5 -81t67.5 -26q56 0 91.5 62.5t36.5 194.5q-42 -93 -149 -93q-83 0 -137 59t-54 156zM179 463q0 -52 22.5 -87.5t72.5 -35.5 q45 0 76 25t31 64q0 45 -23 95q-30 70 -91 70q-45 0 -66.5 -39t-21.5 -92z" />
<glyph unicode=":" horiz-adv-x="239" d="M57 0v135h125v-135h-125zM57 362v135h125v-135h-125z" />
<glyph unicode=";" horiz-adv-x="262" d="M73 362v135h126v-135h-126zM69 0v135h130v-163q0 -56 -32 -99t-93 -60l-24 55q42 8 63 40t21 72v20h-65z" />
<glyph unicode="&#x3c;" d="M59 220v102l410 189v-102l-305 -138l305 -138v-102z" />
<glyph unicode="=" d="M70 119v89h410v-89h-410zM70 329v94h410v-94h-410z" />
<glyph unicode="&#x3e;" d="M490 322v-102l-410 -189v102l304 138l-304 138v102z" />
<glyph unicode="?" horiz-adv-x="510" d="M190 210q-1 10 -2 22.5t-2 20.5t-1 14q0 25 7.5 46t24 38.5t27.5 27t32 24.5q36 26 52.5 49t16.5 60q0 85 -92 85q-128 0 -81 -154l-126 18q-38 103 21.5 164.5t193.5 61.5q104 0 162.5 -40t58.5 -122q0 -36 -11 -64.5t-34.5 -51t-38.5 -33t-45 -28.5q-28 -17 -42 -27 t-29 -30.5t-17 -44.5l-3 -36h-72zM163 0v126h126v-126h-126z" />
<glyph unicode="@" horiz-adv-x="898" d="M232 169q0 53 19 118.5t57 114.5q65 83 162 83q86 0 112 -64l56 53h39l-84 -312q-20 -74 30 -74q59 0 103.5 79t44.5 184q0 128 -73.5 197t-198.5 69q-89 0 -162.5 -36t-120 -94.5t-71.5 -129.5t-25 -144q0 -89 35 -163t112 -122.5t185 -48.5q79 0 148 25t109 70l15 -84 q-117 -86 -279 -86q-192 0 -299 118t-107 289q0 89 31 173.5t88 152t146 109t196 41.5q158 0 255 -87t97 -248q0 -140 -70 -237.5t-173 -97.5q-49 0 -81.5 23t-36.5 61q-17 -34 -50 -59t-79 -25q-54 0 -92 37.5t-38 114.5zM396 94q45 0 87 55l61 229q-21 30 -58 30 q-45 0 -79 -46.5t-48 -100t-14 -96.5q0 -71 51 -71z" />
<glyph unicode="A" horiz-adv-x="618" d="M11 0l233 678h130l233 -678h-132l-50 148h-251l-49 -148h-114zM267 423l-59 -176h183l-59 176q-8 23 -15.5 52t-10.5 47l-4 18h-4q-14 -67 -31 -117z" />
<glyph unicode="B" horiz-adv-x="608" d="M75 0v675h260q95 0 153 -38.5t58 -124.5q0 -121 -133 -148v-3q74 -10 114.5 -51.5t40.5 -114.5q0 -95 -63.5 -145t-161.5 -50h-268zM203 404h98q112 0 112 90q0 85 -102 85h-108v-175zM203 96h110q53 0 88 26.5t35 83.5q0 52 -35 77t-88 25h-110v-212z" />
<glyph unicode="C" horiz-adv-x="627" d="M334 -12q-138 0 -215 87.5t-77 266.5q0 177 77.5 261t217.5 84q134 0 197 -65.5t48 -170.5l-124 -12q24 155 -124 155q-157 0 -157 -253q0 -256 163 -256q64 0 103 35.5t33 100.5l113 -12q7 -96 -62.5 -158.5t-192.5 -62.5z" />
<glyph unicode="D" horiz-adv-x="645" d="M75 0v675h246q134 0 207.5 -83.5t73.5 -248.5q0 -169 -72.5 -256t-208.5 -87h-246zM204 98h100q80 0 123.5 60t43.5 183q0 237 -167 237h-100v-480z" />
<glyph unicode="E" horiz-adv-x="539" d="M75 0v675h419v-99h-290v-177h245v-99h-245v-201h300v-99h-429z" />
<glyph unicode="F" horiz-adv-x="512" d="M75 0v675h409v-99h-280v-202h230v-99h-230v-275h-129z" />
<glyph unicode="G" horiz-adv-x="645" d="M341 236v95h254v-331h-93v103q-46 -115 -182 -115q-128 0 -202.5 88t-74.5 265q0 178 77 262t217 84q135 0 198 -65t47 -162l-124 -13q10 75 -22 111t-96 36q-162 0 -162 -255q0 -140 42.5 -197t119.5 -57q64 0 100.5 33.5t36.5 87.5v30h-136z" />
<glyph unicode="H" horiz-adv-x="660" d="M75 0v675h129v-270h253v270h129v-675h-129v301h-253v-301h-129z" />
<glyph unicode="I" horiz-adv-x="390" d="M38 581v94h315v-94h-96v-486h96v-95h-315v95h90v486h-90z" />
<glyph unicode="J" horiz-adv-x="489" d="M129 581v94h291v-480q0 -96 -52.5 -151.5t-150.5 -55.5q-107 0 -158.5 63t-24.5 162l114 12q-16 -66 0.5 -103t65.5 -37q77 0 77 93v403h-162z" />
<glyph unicode="K" horiz-adv-x="607" d="M75 0v675h129v-221q0 -14 -2 -42t-2 -33h4q42 58 47 64l201 232h141l-237 -270l246 -405h-149l-187 310l-62 -73v-237h-129z" />
<glyph unicode="L" horiz-adv-x="511" d="M75 0v675h129v-576h291v-99h-420z" />
<glyph unicode="M" horiz-adv-x="804" d="M75 0v675h154l147 -367l28 -83h4q13 45 28 83l145 367h149v-675h-124v370q0 21 2.5 54.5t5.5 55.5l2 23h-4q-20 -85 -37 -126l-152 -377h-55l-154 377q-8 18 -17 48t-14 51l-5 21h-4q8 -79 8 -127v-370h-107z" />
<glyph unicode="N" horiz-adv-x="662" d="M75 0v675h128l231 -387q28 -49 50 -105h4q0 5 -2 27t-3.5 46t-1.5 43v376h107v-675h-127l-233 385q-28 46 -49 101h-4q0 -5 2 -26t3.5 -44t1.5 -42v-374h-107z" />
<glyph unicode="O" horiz-adv-x="674" d="M338 -12q-138 0 -217 86t-79 273q0 174 79.5 257t216.5 83q136 0 214.5 -83t78.5 -257q0 -359 -293 -359zM336 81q162 0 162 266q0 132 -44.5 189.5t-117.5 57.5q-72 0 -116.5 -57.5t-44.5 -189.5q0 -266 161 -266z" />
<glyph unicode="P" horiz-adv-x="585" d="M75 0v675h264q100 0 160.5 -52t60.5 -150q0 -103 -60.5 -161t-160.5 -58h-135v-254h-129zM319 579h-115v-229h115q46 0 78 28.5t32 88.5q0 59 -32 85.5t-78 26.5z" />
<glyph unicode="Q" horiz-adv-x="691" d="M42 344q0 177 79 260t216 83q136 0 215 -83t79 -257q0 -165 -71 -258q34 -25 93 -25q12 0 22.5 1.5t14.5 2.5l4 2l-13 -104q-19 -6 -42 -6q-49 0 -79.5 19t-53.5 57q-68 -48 -167 -48q-138 0 -217.5 86t-79.5 270zM175 344q0 -263 161 -263q162 0 162 263q0 250 -162 250 q-161 0 -161 -250z" />
<glyph unicode="R" horiz-adv-x="606" d="M75 0v675h259q97 0 155 -48t58 -137q0 -75 -43 -123t-104 -60q30 -24 49 -65q5 -11 15.5 -36t18 -40t19 -33t26.5 -27t33 -9l26 5l-12 -99q-26 -6 -50 -6q-59 0 -93.5 32.5t-66.5 106.5q-3 7 -10.5 25.5t-12 28.5t-12.5 26.5t-14.5 25.5t-15.5 19t-18.5 14.5t-19.5 4.5 h-58v-280h-129zM318 579h-114v-203h94q48 0 83 23.5t35 82.5q0 51 -28 74t-70 23z" />
<glyph unicode="S" horiz-adv-x="580" d="M39 204l115 12q-14 -57 19.5 -95t115.5 -38q120 0 120 86q0 42 -32 64.5t-102 46.5q-32 11 -43.5 15t-42 17t-44 22t-35.5 26.5t-32 35.5t-18.5 43.5t-8.5 54.5q0 91 66 142.5t182 50.5q131 -1 188 -65t41 -157l-122 -12q19 141 -116 141q-109 0 -109 -84q0 -45 33.5 -68 t106.5 -47q40 -13 62.5 -21.5t56.5 -26.5t52 -37.5t32 -50.5t14 -70q0 -89 -66 -145t-188 -56q-123 0 -192.5 57t-52.5 159z" />
<glyph unicode="T" horiz-adv-x="547" d="M18 576v99h511v-99h-193v-576h-129v576h-189z" />
<glyph unicode="U" horiz-adv-x="651" d="M69 223v452h129v-445q0 -140 129 -140q61 0 96 35t35 106v444h124v-447q0 -111 -68 -175.5t-189 -64.5q-119 0 -187.5 63.5t-68.5 171.5z" />
<glyph unicode="V" horiz-adv-x="619" d="M246 0l-237 675h134l149 -431q7 -20 13 -47t9 -44l2 -17h4q10 63 25 108l147 431h117l-236 -675h-127z" />
<glyph unicode="W" horiz-adv-x="896" d="M198 0l-180 675h128l116 -438q4 -17 7.5 -42t4.5 -41l1 -17h4q4 63 13 98l108 440h114l108 -439q4 -17 7 -43.5t5 -44.5l1 -18h4q6 70 15 105l114 440h111l-181 -675h-140l-89 350q-5 21 -10 51.5t-7 50.5l-2 19h-4q-5 -73 -17 -120l-89 -351h-142z" />
<glyph unicode="X" horiz-adv-x="576" d="M4 0l211 350l-193 325h149l89 -152l35 -68h4q18 37 37 69l90 151h125l-190 -314l214 -361h-149l-111 189l-35 67h-4q-17 -35 -35 -67l-112 -189h-125z" />
<glyph unicode="Y" horiz-adv-x="574" d="M223 0v285l-220 390h146l113 -204l35 -70h4q17 38 34 70l111 204h121l-215 -390v-285h-129z" />
<glyph unicode="Z" horiz-adv-x="539" d="M31 0v82l285 448l32 42v4h-302v99h456v-82l-278 -436l-40 -54v-4h318v-99h-471z" />
<glyph unicode="[" horiz-adv-x="313" d="M71 -140v874h213v-70h-111v-734h111v-70h-213z" />
<glyph unicode="\" horiz-adv-x="357" d="M224 -42l-200 756h108l202 -756h-110z" />
<glyph unicode="]" horiz-adv-x="313" d="M243 734v-874h-214v70h111v734h-111v70h214z" />
<glyph unicode="^" d="M39 228l200 459h73l199 -459h-107l-129 315l-128 -315h-108z" />
<glyph unicode="_" horiz-adv-x="607" d="M56 -92v92h496v-92h-496z" />
<glyph unicode="`" horiz-adv-x="502" d="M249 567l-169 158h137l125 -158h-93z" />
<glyph unicode="a" horiz-adv-x="513" d="M31 129q0 75 60.5 117t146.5 42q50 0 77 -16v72q0 85 -74 85q-44 0 -60.5 -26t-5.5 -69l-117 13q-18 81 37 121.5t153 40.5q189 0 189 -165v-221q0 -34 20 -34q8 0 16 4t12 8l4 4l7 -87q-34 -25 -82 -25q-79 0 -91 77q-44 -82 -141 -82q-65 0 -108 39.5t-43 101.5z M219 76q50 0 96 51v86q-4 0 -17 0.5t-22 0.5q-124 0 -124 -77q0 -30 18 -45.5t49 -15.5z" />
<glyph unicode="b" horiz-adv-x="543" d="M64 -5v720h123v-276q47 70 130 70q33 0 63.5 -12.5t60 -39.5t47 -79.5t17.5 -123.5q0 -75 -19.5 -129.5t-52 -83t-66.5 -41t-70 -12.5q-95 0 -139 71l-48 -64h-46zM279 417q-48 0 -92 -44v-262q30 -32 81 -32q112 0 112 169t-101 169z" />
<glyph unicode="c" horiz-adv-x="487" d="M38 236q0 129 55 201t172 72q82 0 134.5 -34.5t52.5 -99.5q0 -23 -5 -40l-113 -13q6 24 6 38q0 32 -19 50.5t-56 18.5q-99 0 -99 -199q0 -154 103 -154q39 0 61 20t22 56l-1 15l101 -14v-14q0 -67 -51 -109t-137 -42q-104 0 -165 60.5t-61 187.5z" />
<glyph unicode="d" horiz-adv-x="540" d="M38 241q0 74 19 128.5t50.5 83.5t65 42.5t69.5 13.5q72 0 110 -51v257h123v-628l11 -87h-92l-24 67q-50 -79 -141 -79q-34 0 -65 12t-60.5 38.5t-47.5 78.5t-18 124zM262 79q48 0 90 42v262q-36 34 -81 34q-108 0 -108 -171q0 -167 99 -167z" />
<glyph unicode="e" horiz-adv-x="506" d="M37 237q0 54 12.5 100.5t38 86t71 62.5t106.5 23q103 0 153 -59t50 -168q0 -14 -2 -50h-303q1 -156 109 -156q38 0 65 17.5t27 52.5q0 2 -0.5 6t-0.5 7l100 -14q1 -5 1 -17q0 -65 -56 -102.5t-140 -37.5q-105 0 -168 62.5t-63 186.5zM264 432q-79 0 -97 -125h176v17 q0 47 -19.5 77.5t-59.5 30.5z" />
<glyph unicode="f" horiz-adv-x="383" d="M18 413v84h81v72q0 171 176 171q96 0 137 -43t18 -112l-106 -12q29 85 -45 85q-33 0 -45 -21.5t-12 -68.5v-71h147v-84h-147v-413h-123v413h-81z" />
<glyph unicode="g" horiz-adv-x="539" d="M40 260q0 70 18 120.5t48.5 77.5t64 39t71.5 12q98 0 140 -71l48 64h46v-514q0 -94 -62.5 -147.5t-161.5 -53.5q-97 0 -157.5 42.5t-30.5 119.5l102 11q-14 -40 13 -63.5t74 -23.5q100 0 100 107v117q-41 -68 -127 -68q-36 0 -67 11t-59 36t-44 72t-16 112zM262 119 q52 0 91 41v225q-29 32 -85 32q-47 0 -75 -32t-28 -117q0 -149 97 -149z" />
<glyph unicode="h" horiz-adv-x="546" d="M363 0v332q0 41 -16.5 59.5t-55.5 18.5q-58 0 -104 -46v-364h-123v715h123v-290q55 84 145 84q70 0 112 -38.5t42 -114.5v-356h-123z" />
<glyph unicode="i" horiz-adv-x="251" d="M61 599v121h128v-121h-128zM64 0v497h123v-497h-123z" />
<glyph unicode="j" horiz-adv-x="251" d="M61 599v121h128v-121h-128zM64 3v494h123v-477q0 -233 -181 -233q-45 0 -93 17l17 100q27 -17 58 -17q76 0 76 116z" />
<glyph unicode="k" horiz-adv-x="510" d="M64 0v715h123v-410l176 192h133l-173 -187l181 -310h-138l-131 227l-48 -51v-176h-123z" />
<glyph unicode="l" horiz-adv-x="283" d="M63 110v605h123v-588q0 -35 32 -35q11 0 23 5t19 11l6 5l12 -99q-42 -21 -98 -21q-53 0 -85 29.5t-32 87.5z" />
<glyph unicode="m" horiz-adv-x="798" d="M615 0v335q0 75 -61 75q-51 0 -93 -46v-364h-123v335q0 75 -60 75q-48 0 -91 -47v-363h-123v497h93l14 -81q30 45 63 69t82 24q103 0 131 -92q30 45 63 68.5t81 23.5q65 0 106 -38.5t41 -114.5v-356h-123z" />
<glyph unicode="n" horiz-adv-x="536" d="M64 0v497h93l15 -81q31 46 66.5 69.5t89.5 23.5q67 0 107.5 -38.5t40.5 -114.5v-356h-123v332q0 41 -16 59.5t-50 18.5q-54 0 -100 -48v-362h-123z" />
<glyph unicode="o" horiz-adv-x="523" d="M38 251q0 133 60.5 195.5t162.5 62.5t163.5 -64t61.5 -198t-61.5 -196.5t-160.5 -62.5q-103 0 -164.5 63.5t-61.5 199.5zM263 70q98 0 98 178q0 179 -100 179q-98 0 -98 -175q0 -182 100 -182z" />
<glyph unicode="p" horiz-adv-x="539" d="M64 -206v703h91l15 -74q53 86 146 86q32 0 62.5 -12.5t59 -39.5t46 -79t17.5 -122q0 -74 -19 -128.5t-50 -83.5t-64.5 -42.5t-69.5 -13.5q-73 0 -111 51v-245h-123zM278 417q-52 0 -91 -46v-257q33 -35 82 -35q107 0 107 172q0 166 -98 166z" />
<glyph unicode="q" horiz-adv-x="543" d="M38 243q0 75 19.5 129.5t52 83t66.5 41t70 12.5q95 0 140 -73l47 63h46v-710h-123v269q-47 -70 -130 -70q-33 0 -63.5 12.5t-60 39.5t-47 79.5t-17.5 123.5zM264 79q50 0 92 44v262q-32 32 -81 32q-112 0 -112 -168q0 -170 101 -170z" />
<glyph unicode="r" horiz-adv-x="431" d="M64 0v497h93l17 -92q39 104 135 104q49 0 78 -31.5t30 -73.5t-13 -83l-105 -14q14 30 7 65t-41 35q-52 0 -78 -76v-331h-123z" />
<glyph unicode="s" horiz-adv-x="475" d="M39 149l100 9q-3 -10 -3 -20q0 -34 27.5 -52t69.5 -18q86 0 86 60q0 18 -15.5 31.5t-30.5 19.5t-51 17l-9 3q-37 11 -60 21t-50.5 28.5t-41.5 46.5t-14 66q0 71 51.5 109.5t141.5 38.5q85 0 138 -33.5t53 -94.5q0 -9 -1 -21l-2 -12l-114 -11q4 20 4 29q0 31 -23 47 t-60 16q-34 0 -53 -14.5t-19 -40.5q0 -29 21.5 -43.5t68.5 -30.5q4 -1 27 -8t29 -9.5t26.5 -9.5t27.5 -12.5t22.5 -15t21.5 -19t14.5 -22.5t11.5 -29t3 -34q0 -73 -56 -113t-150 -40q-80 0 -138 31t-58 94q0 16 5 36z" />
<glyph unicode="t" horiz-adv-x="424" d="M15 412v85h86l20 142l97 14v-156h158v-85h-158v-258q0 -42 10 -59.5t36 -17.5q31 0 41 27t2 67l100 -14q12 -77 -30.5 -123t-125.5 -46q-77 0 -116.5 40t-39.5 116v268h-80z" />
<glyph unicode="u" horiz-adv-x="530" d="M60 141v356h123v-332q0 -41 15 -59.5t48 -18.5q51 0 96 47v363h123v-410l11 -87h-93l-28 78q-62 -90 -148 -90q-67 0 -107 38.5t-40 114.5z" />
<glyph unicode="v" horiz-adv-x="493" d="M188 0l-173 497h124l94 -279l18 -84h4q9 53 19 83l96 280h109l-173 -497h-118z" />
<glyph unicode="w" horiz-adv-x="748" d="M171 0l-153 497h121l82 -284l15 -90h4q7 58 16 90l81 284h91l81 -284q4 -15 7.5 -37t5.5 -37l2 -15h4q5 56 15 89l83 284h105l-153 -497h-123l-66 224q-4 13 -7.5 31.5t-4.5 30.5l-1 12h-4q-4 -45 -12 -73l-66 -225h-123z" />
<glyph unicode="x" horiz-adv-x="477" d="M8 0l162 249l-151 248h138l62 -105l24 -47h4q14 27 27 47l67 105h121l-155 -238l159 -259h-137l-69 113l-26 50h-4q-13 -27 -28 -50l-72 -113h-122z" />
<glyph unicode="y" horiz-adv-x="498" d="M45 -87q25 -25 66 -25q62 0 84 65l11 31l-194 513h131l95 -273l23 -93h4q14 60 24 93l84 273h110l-189 -563q-49 -147 -177 -147q-26 0 -48 7t-31 14l-10 7z" />
<glyph unicode="z" horiz-adv-x="449" d="M31 0v75l207 296l28 34v4h-219v88h365v-75l-201 -288l-34 -42v-4h233v-88h-379z" />
<glyph unicode="{" horiz-adv-x="348" d="M101 37v111q0 47 -17.5 72.5t-65.5 35.5v80q49 11 66 34.5t17 68.5v130q0 78 46.5 126t138.5 48h33v-85q-62 0 -90 -27t-28 -85v-90q0 -128 -88 -159q88 -33 88 -150v-87q0 -67 27.5 -95.5t90.5 -28.5v-85h-33q-91 0 -138 48.5t-47 137.5z" />
<glyph unicode="|" horiz-adv-x="246" d="M71 -120v875h105v-875h-105z" />
<glyph unicode="}" horiz-adv-x="349" d="M247 148l3 -111q-2 -90 -49 -138t-138 -48h-33v85q63 0 90 28.5t27 95.5v87q0 116 89 150q-89 31 -89 159v90q0 58 -27.5 85t-89.5 27v85h33q91 0 137.5 -48t46.5 -126v-130q0 -45 17 -68.5t66 -34.5v-80q-48 -10 -65.5 -35.5t-17.5 -72.5z" />
<glyph unicode="~" d="M30 254q0 93 40.5 141t109.5 48q37 0 66 -14t43.5 -31t35.5 -31t45 -14q63 0 63 86h94q0 -94 -40.5 -141.5t-109.5 -47.5q-30 0 -54.5 9.5t-39.5 22.5t-28.5 26t-30 22.5t-36.5 9.5q-64 0 -64 -86h-94z" />
<glyph unicode="&#xa1;" horiz-adv-x="246" d="M156 282q0 -23 16.5 -194t16.5 -266h-133q0 95 16.5 266t16.5 194h67zM185 497v-126h-125v126h125z" />
<glyph unicode="&#xa2;" d="M257 -12v94q-213 20 -213 264q0 124 54 185.5t159 70.5v85h56v-84q100 -3 155.5 -49.5t33.5 -124.5l-112 -10q11 40 -11 66.5t-66 31.5v-346q44 5 69 29t21 59l104 -10q4 -65 -47.5 -114t-146.5 -54v-93h-56zM170 344q0 -147 87 -170v339q-87 -22 -87 -169z" />
<glyph unicode="&#xa3;" d="M27 261v74h79v159q0 92 52.5 142.5t151.5 50.5q105 0 157.5 -59t36.5 -160l-123 -14q18 140 -72 140q-79 0 -79 -118v-141h184v-74h-184v-53q0 -86 -44 -109h337v-99h-488v99h24q47 2 47 89v73h-79z" />
<glyph unicode="&#xa5;" d="M34 354v69h106l-131 252h136l138 -282l137 282h121l-131 -252h105v-69h-141l-34 -67v-45h175v-69h-175v-173h-129v173h-177v69h177v45l-35 67h-142z" />
<glyph unicode="&#xa7;" horiz-adv-x="487" d="M140 -31l-65 467q-6 50 -6 80q0 73 50.5 122t143.5 49q45 0 81.5 -12.5t56.5 -29.5t34 -34.5t19 -30.5l4 -12l-62 -57q-1 4 -4 10.5t-14 22.5t-24.5 28.5t-37.5 23t-51 10.5q-48 0 -77.5 -28t-29.5 -70q0 -23 6 -67l67 -472h-91zM86 -37q1 -4 3.5 -10.5t11.5 -22.5 t21.5 -28.5t34.5 -23t48 -10.5q47 0 76 28t29 70q0 24 -6 68l-66 471h91l64 -467q6 -50 6 -80q0 -72 -50.5 -121.5t-140.5 -49.5q-43 0 -78 12.5t-53.5 29.5t-31 34.5t-16.5 30.5l-4 12z" />
<glyph unicode="&#xa8;" horiz-adv-x="502" d="M111 597v108h102v-108h-102zM291 597v108h102v-108h-102z" />
<glyph unicode="&#xa9;" horiz-adv-x="780" d="M45 339q0 93 30 164.5t81 111.5t110 59.5t124 19.5q67 0 126 -19.5t109.5 -60t80 -112t29.5 -165.5q0 -76 -20 -137.5t-53 -101.5t-78 -67t-93 -38.5t-101 -11.5q-66 0 -124.5 19.5t-109.5 60t-81 112t-30 166.5zM115 338q0 -154 77 -224t198 -70q123 0 199.5 69.5 t76.5 222.5q0 155 -76.5 225.5t-199.5 70.5q-57 0 -105 -15.5t-87 -49t-61 -92t-22 -137.5zM201 334q0 219 201 219q83 0 125.5 -42.5t27.5 -119.5l-89 -10q9 47 -9 72t-57 25q-98 0 -98 -145q0 -81 27 -108t75 -27q38 0 58.5 24t16.5 64l81 -10q5 -68 -36.5 -112 t-121.5 -44q-201 0 -201 214z" />
<glyph unicode="&#xaa;" horiz-adv-x="359" d="M135 364q-40 0 -66.5 23t-26.5 62q0 46 38.5 73t99.5 27q14 0 30 -2v36q0 51 -39 51q-49 0 -39 -54l-72 6q-11 48 20.5 72t92.5 24q58 0 83.5 -24t25.5 -75v-134q0 -21 13 -21q5 0 10 2t7 4l3 3l3 -55q-18 -15 -46 -15q-48 0 -54 42q-36 -45 -83 -45zM153 418q28 0 57 27 v52q-4 1 -13 1q-80 0 -80 -47q0 -33 36 -33z" />
<glyph unicode="&#xab;" horiz-adv-x="540" d="M252 247l132 200h113l-134 -199l134 -199h-114zM40 247l132 200h113l-134 -199l134 -199h-114z" />
<glyph unicode="&#xad;" horiz-adv-x="380" d="M57 208v110h267v-110h-267z" />
<glyph unicode="&#xae;" horiz-adv-x="549" d="M275 279q-95 0 -166 60t-71 174q0 115 71 176t166 61t165.5 -61t70.5 -176q0 -114 -70.5 -174t-165.5 -60zM275 331q76 0 126.5 46t50.5 136q0 91 -50.5 137.5t-126.5 46.5t-127.5 -46.5t-51.5 -137.5q0 -90 51.5 -136t127.5 -46zM191 403v226h97q35 0 59.5 -16t24.5 -54 q0 -26 -15 -43t-39 -22l54 -91h-62l-47 83h-17v-83h-55zM246 526h34q14 0 25 8t11 23q0 29 -36 29h-34v-60z" />
<glyph unicode="&#xaf;" horiz-adv-x="503" d="M132 607v84h246v-84h-246z" />
<glyph unicode="&#xb0;" horiz-adv-x="364" d="M36 589q0 59 42.5 100t103.5 41t103.5 -41t42.5 -100t-42.5 -100t-103.5 -41t-103.5 41t-42.5 100zM103 589q0 -33 23 -56t56 -23t56 23t23 56t-23 56t-56 23t-56 -23t-23 -56z" />
<glyph unicode="&#xb1;" d="M40 334v94h186v176h94v-176h190v-94h-190v-180h-94v180h-186zM40 0v89h470v-89h-470z" />
<glyph unicode="&#xb2;" horiz-adv-x="394" d="M342 433v-68h-289v53q189 125 189 233q0 59 -53 59q-24 0 -38 -15t-14 -42q0 -14 3.5 -29t7.5 -23l3 -8l-88 8q-12 26 -12 59q0 50 36.5 84t105.5 34q66 0 106 -33t40 -90q0 -118 -171 -222h174z" />
<glyph unicode="&#xb3;" horiz-adv-x="372" d="M114 549l-38 48l126 102h-149v66h259v-52l-106 -88q56 1 93 -33.5t37 -93.5q0 -65 -46.5 -105.5t-115.5 -40.5q-65 0 -103.5 35t-31.5 93l81 7q-6 -29 10 -47.5t43 -18.5q28 0 47 19t19 60q0 73 -66 73q-32 0 -59 -24z" />
<glyph unicode="&#xb4;" horiz-adv-x="502" d="M419 725l-168 -158h-94l125 158h137z" />
<glyph unicode="&#xb6;" horiz-adv-x="626" d="M275 164q-46 0 -87.5 12.5t-79 39.5t-60 79.5t-22.5 124.5q0 58 15 103.5t39.5 73.5t58 46t66.5 25t70 7h312v-72h-222v-809h-90v370zM441 -206v739h90v-739h-90z" />
<glyph unicode="&#xb7;" horiz-adv-x="239" d="M57 257v135h125v-135h-125z" />
<glyph unicode="&#xb8;" horiz-adv-x="502" d="M215 -97l19 113h53l-14 -72q73 -13 73 -75q0 -39 -29 -63t-70 -24q-58 0 -87 35l21 49q22 -31 59 -31q39 0 39 35q0 33 -50 33h-14z" />
<glyph unicode="&#xb9;" horiz-adv-x="348" d="M59 365v65h87v239q-30 -31 -99 -31v65q36 -3 69.5 12.5t48.5 54.5h72v-340h76v-65h-254z" />
<glyph unicode="&#xba;" horiz-adv-x="349" d="M176 364q-134 0 -134 161q0 158 132 158q134 0 134 -161q0 -82 -36 -120t-96 -38zM175 417q24 0 40.5 25t16.5 81q0 57 -16.5 82t-41.5 25q-56 0 -56 -104q0 -57 16 -83t41 -26z" />
<glyph unicode="&#xbb;" horiz-adv-x="540" d="M255 49l134 199l-134 199h113l132 -200l-131 -198h-114zM43 49l134 199l-134 199h113l132 -200l-131 -198h-114z" />
<glyph unicode="&#xbc;" horiz-adv-x="811" d="M730 0h-91v95h-184v51l188 259h87v-243h51v-67h-51v-95zM260 0l228 675h83l-228 -675h-83zM52 270v65h87v239q-30 -31 -99 -31v65q36 -3 69.5 12.5t48.5 54.5h73v-340h76v-65h-255zM536 162h103v141z" />
<glyph unicode="&#xbd;" horiz-adv-x="830" d="M793 68v-68h-289v58q189 122 189 228q0 59 -53 59q-24 0 -38 -15t-14 -42q0 -14 3.5 -29t6.5 -23l4 -8l-88 8q-12 26 -12 59q0 50 36.5 84t105.5 34q66 0 106 -33t40 -90q0 -118 -171 -222h174zM259 0l228 675h83l-228 -675h-83zM51 270v65h87v239q-30 -31 -99 -31v65 q36 -3 69.5 12.5t48.5 54.5h73v-340h76v-65h-255z" />
<glyph unicode="&#xbe;" horiz-adv-x="805" d="M724 0h-91v95h-184v51l188 259h87v-243h51v-67h-51v-95zM110 465l-38 48l125 102h-148v66h259v-52l-104 -88q54 0 91 -34.5t37 -92.5q0 -66 -45.5 -106t-114.5 -40q-65 0 -105 35t-32 93l81 7q-6 -29 10 -47.5t43 -18.5q28 0 47 19t19 60q0 73 -66 73q-32 0 -59 -24z M254 0l228 675h83l-228 -675h-83zM530 162h103v141z" />
<glyph unicode="&#xbf;" horiz-adv-x="504" d="M318 287q1 -10 2 -22.5t2 -20.5t1 -14q0 -25 -7.5 -46t-24 -38.5t-27.5 -27t-32 -24.5q-36 -26 -52.5 -49t-16.5 -60q0 -85 92 -85q128 0 81 154l126 -18q38 -103 -21.5 -164.5t-193.5 -61.5q-104 0 -162.5 40t-58.5 122q0 36 11 64.5t34.5 51t38.5 33t45 28.5 q28 17 42 27t29 30.5t17 44.5l3 36h72zM345 497v-126h-126v126h126z" />
<glyph unicode="&#xc0;" horiz-adv-x="618" d="M11 0l233 678h130l233 -678h-132l-50 148h-251l-49 -148h-114zM267 423l-59 -176h183l-59 176q-8 23 -15.5 52t-10.5 47l-4 18h-4q-14 -67 -31 -117zM297 731l-169 158h137l125 -158h-93z" />
<glyph unicode="&#xc1;" horiz-adv-x="618" d="M11 0l233 678h130l233 -678h-132l-50 148h-251l-49 -148h-114zM267 423l-59 -176h183l-59 176q-8 23 -15.5 52t-10.5 47l-4 18h-4q-14 -67 -31 -117zM490 889l-168 -158h-94l125 158h137z" />
<glyph unicode="&#xc2;" horiz-adv-x="618" d="M11 0l233 678h130l233 -678h-132l-50 148h-251l-49 -148h-114zM231 731h-87l113 158h103l112 -158h-86l-78 92zM267 423l-59 -176h183l-59 176q-8 23 -15.5 52t-10.5 47l-4 18h-4q-14 -67 -31 -117z" />
<glyph unicode="&#xc3;" horiz-adv-x="618" d="M11 0l233 678h130l233 -678h-132l-50 148h-251l-49 -148h-114zM202 751l-61 11q7 59 37 87.5t69 28.5q33 0 70.5 -25.5t56.5 -25.5q33 0 43 48l60 -11q-7 -59 -37 -88t-68 -29q-33 0 -71 25.5t-56 25.5q-35 0 -43 -47zM267 423l-59 -176h183l-59 176q-8 23 -15.5 52 t-10.5 47l-4 18h-4q-14 -67 -31 -117z" />
<glyph unicode="&#xc4;" horiz-adv-x="618" d="M11 0l233 678h130l233 -678h-132l-50 148h-251l-49 -148h-114zM267 423l-59 -176h183l-59 176q-8 23 -15.5 52t-10.5 47l-4 18h-4q-14 -67 -31 -117zM169 761v108h102v-108h-102zM349 761v108h102v-108h-102z" />
<glyph unicode="&#xc5;" horiz-adv-x="618" d="M11 0l233 678h130l233 -678h-132l-50 148h-251l-49 -148h-114zM309 720q-41 0 -70 23t-29 67q0 45 28.5 67t70.5 22t71 -22t29 -67q0 -44 -29 -67t-71 -23zM267 423l-59 -176h183l-59 176q-8 23 -15.5 52t-10.5 47l-4 18h-4q-14 -67 -31 -117zM309 768q46 0 46 43 q0 42 -46 42q-20 0 -33 -11t-13 -31q0 -21 13 -32t33 -11z" />
<glyph unicode="&#xc6;" horiz-adv-x="849" d="M385 0v173h-193l-73 -173h-128l292 675h521v-99h-290v-177h245v-99h-245v-201h300v-99h-429zM367 588l-133 -316h151v316h-18z" />
<glyph unicode="&#xc7;" horiz-adv-x="628" d="M277 -97l14 88q-118 12 -183 99t-65 252q0 177 77.5 261t217.5 84q134 0 197 -65.5t48 -170.5l-124 -12q24 155 -124 155q-157 0 -157 -253q0 -256 163 -256q64 0 103 35.5t33 100.5l113 -12q7 -94 -60 -156t-186 -65l-9 -44q73 -13 73 -75q0 -39 -29 -63t-70 -24 q-58 0 -87 35l21 49q22 -31 59 -31q39 0 39 35q0 32 -43 33h-21z" />
<glyph unicode="&#xc8;" horiz-adv-x="539" d="M75 0v675h419v-99h-290v-177h245v-99h-245v-201h300v-99h-429zM284 732l-169 158h137l125 -158h-93z" />
<glyph unicode="&#xc9;" horiz-adv-x="539" d="M477 890l-168 -158h-94l125 158h137zM75 0v675h419v-99h-290v-177h245v-99h-245v-201h300v-99h-429z" />
<glyph unicode="&#xca;" horiz-adv-x="539" d="M218 732h-87l113 158h103l112 -158h-86l-78 92zM75 0v675h419v-99h-290v-177h245v-99h-245v-201h300v-99h-429z" />
<glyph unicode="&#xcb;" horiz-adv-x="539" d="M156 762v108h102v-108h-102zM336 762v108h102v-108h-102zM75 0v675h419v-99h-290v-177h245v-99h-245v-201h300v-99h-429z" />
<glyph unicode="&#xcc;" horiz-adv-x="390" d="M38 581v94h315v-94h-96v-486h96v-95h-315v95h90v486h-90zM179 732l-169 158h137l125 -158h-93z" />
<glyph unicode="&#xcd;" horiz-adv-x="390" d="M38 581v94h315v-94h-96v-486h96v-95h-315v95h90v486h-90zM372 890l-168 -158h-94l125 158h137z" />
<glyph unicode="&#xce;" horiz-adv-x="390" d="M38 581v94h315v-94h-96v-486h96v-95h-315v95h90v486h-90zM113 732h-87l113 158h103l112 -158h-86l-78 92z" />
<glyph unicode="&#xcf;" horiz-adv-x="390" d="M38 581v94h315v-94h-96v-486h96v-95h-315v95h90v486h-90zM231 762v108h102v-108h-102zM51 762v108h102v-108h-102z" />
<glyph unicode="&#xd0;" horiz-adv-x="658" d="M10 308v79h77v288h246q135 0 208.5 -83.5t73.5 -248.5q0 -169 -73 -256t-209 -87h-246v308h-77zM216 98h101q79 0 122.5 60t43.5 183q0 237 -166 237h-101v-191h152v-79h-152v-210z" />
<glyph unicode="&#xd1;" horiz-adv-x="662" d="M75 0v675h128l231 -387q28 -49 50 -105h4q0 5 -2 27t-3.5 46t-1.5 43v376h107v-675h-127l-233 385q-28 46 -49 101h-4q0 -5 2 -26t3.5 -44t1.5 -42v-374h-107zM226 752l-61 11q7 59 37 87.5t69 28.5q33 0 70.5 -25.5t56.5 -25.5q33 0 43 48l60 -11q-7 -59 -37 -88 t-68 -29q-33 0 -71 25.5t-56 25.5q-35 0 -43 -47z" />
<glyph unicode="&#xd2;" horiz-adv-x="674" d="M338 -12q-138 0 -217 86t-79 273q0 174 79.5 257t216.5 83q136 0 214.5 -83t78.5 -257q0 -359 -293 -359zM336 81q162 0 162 266q0 132 -44.5 189.5t-117.5 57.5q-72 0 -116.5 -57.5t-44.5 -189.5q0 -266 161 -266zM326 732l-169 158h137l125 -158h-93z" />
<glyph unicode="&#xd3;" horiz-adv-x="674" d="M519 890l-168 -158h-94l125 158h137zM338 -12q-138 0 -217 86t-79 273q0 174 79.5 257t216.5 83q136 0 214.5 -83t78.5 -257q0 -359 -293 -359zM336 81q162 0 162 266q0 132 -44.5 189.5t-117.5 57.5q-72 0 -116.5 -57.5t-44.5 -189.5q0 -266 161 -266z" />
<glyph unicode="&#xd4;" horiz-adv-x="674" d="M260 732h-87l113 158h103l112 -158h-86l-78 92zM338 -12q-138 0 -217 86t-79 273q0 174 79.5 257t216.5 83q136 0 214.5 -83t78.5 -257q0 -359 -293 -359zM336 81q162 0 162 266q0 132 -44.5 189.5t-117.5 57.5q-72 0 -116.5 -57.5t-44.5 -189.5q0 -266 161 -266z" />
<glyph unicode="&#xd5;" horiz-adv-x="674" d="M338 -12q-138 0 -217 86t-79 273q0 174 79.5 257t216.5 83q136 0 214.5 -83t78.5 -257q0 -359 -293 -359zM336 81q162 0 162 266q0 132 -44.5 189.5t-117.5 57.5q-72 0 -116.5 -57.5t-44.5 -189.5q0 -266 161 -266zM231 752l-61 11q7 59 37 87.5t69 28.5q33 0 70.5 -25.5 t56.5 -25.5q33 0 43 48l60 -11q-7 -59 -37 -88t-68 -29q-33 0 -71 25.5t-56 25.5q-35 0 -43 -47z" />
<glyph unicode="&#xd6;" horiz-adv-x="674" d="M198 762v108h102v-108h-102zM378 762v108h102v-108h-102zM338 -12q-138 0 -217 86t-79 273q0 174 79.5 257t216.5 83q136 0 214.5 -83t78.5 -257q0 -359 -293 -359zM336 81q162 0 162 266q0 132 -44.5 189.5t-117.5 57.5q-72 0 -116.5 -57.5t-44.5 -189.5 q0 -266 161 -266z" />
<glyph unicode="&#xd7;" d="M57 423l66 66l152 -152l152 152l66 -66l-152 -152l155 -154l-67 -67l-154 154l-154 -154l-67 67l154 154z" />
<glyph unicode="&#xd8;" horiz-adv-x="673" d="M46 -60l81 128q-85 90 -85 279q0 174 79.5 257t216.5 83q93 0 156 -36l53 84h80l-80 -126q84 -87 84 -262q0 -359 -293 -359q-91 0 -158 37l-54 -85h-80zM175 347q0 -101 24 -165l236 375q-40 37 -99 37q-72 0 -116.5 -57.5t-44.5 -189.5zM336 81q162 0 162 266 q0 92 -23 147l-237 -376q38 -37 98 -37z" />
<glyph unicode="&#xd9;" horiz-adv-x="651" d="M69 223v452h129v-445q0 -140 129 -140q61 0 96 35t35 106v444h124v-447q0 -111 -68 -175.5t-189 -64.5q-119 0 -187.5 63.5t-68.5 171.5zM313 732l-169 158h137l125 -158h-93z" />
<glyph unicode="&#xda;" horiz-adv-x="651" d="M506 890l-168 -158h-94l125 158h137zM69 223v452h129v-445q0 -140 129 -140q61 0 96 35t35 106v444h124v-447q0 -111 -68 -175.5t-189 -64.5q-119 0 -187.5 63.5t-68.5 171.5z" />
<glyph unicode="&#xdb;" horiz-adv-x="651" d="M247 732h-87l113 158h103l112 -158h-86l-78 92zM69 223v452h129v-445q0 -140 129 -140q61 0 96 35t35 106v444h124v-447q0 -111 -68 -175.5t-189 -64.5q-119 0 -187.5 63.5t-68.5 171.5z" />
<glyph unicode="&#xdc;" horiz-adv-x="651" d="M185 762v108h102v-108h-102zM365 762v108h102v-108h-102zM69 223v452h129v-445q0 -140 129 -140q61 0 96 35t35 106v444h124v-447q0 -111 -68 -175.5t-189 -64.5q-119 0 -187.5 63.5t-68.5 171.5z" />
<glyph unicode="&#xdd;" horiz-adv-x="574" d="M223 0v285l-220 390h146l113 -204l35 -70h4q17 38 34 70l111 204h121l-215 -390v-285h-129zM476 890l-168 -158h-94l125 158h137z" />
<glyph unicode="&#xde;" horiz-adv-x="593" d="M75 0v675h129v-122h136q101 0 161.5 -52t60.5 -152q0 -101 -61 -159t-161 -58h-136v-132h-129zM319 457h-115v-229h115q46 0 78 28.5t32 88.5q0 59 -31.5 85.5t-78.5 26.5z" />
<glyph unicode="&#xdf;" horiz-adv-x="585" d="M64 0v547q0 96 60.5 143t159.5 47q94 0 149 -41t55 -113q0 -11 -1.5 -21.5t-5 -20.5t-6 -17t-9 -16.5t-9 -14t-11 -13.5t-11 -11.5t-12.5 -12t-11 -10.5l-22 -22t-13 -19.5t-7 -27.5q0 -18 11 -32.5t22 -20.5t35 -18q5 -3 8 -4q26 -13 43 -23.5t36 -28.5t28.5 -44 t9.5 -60q0 -78 -50.5 -118t-124.5 -40q-67 0 -113 31.5t-46 84.5q0 18 6 39l92 10q-4 -16 -4 -26q0 -31 18 -46.5t46 -15.5q29 0 50 16.5t21 47.5q0 10 -2.5 18.5t-8.5 16t-10.5 12.5t-16 11.5t-16.5 9.5t-19.5 9.5t-19.5 8.5q-48 23 -74.5 55t-26.5 86q0 13 2 24.5 t4.5 20.5t8 19.5t9 16t12 15t11.5 12.5l13 13l12 12q44 42 44 86q0 83 -96 83q-49 0 -74 -25t-25 -82v-551h-121z" />
<glyph unicode="&#xe0;" horiz-adv-x="513" d="M31 129q0 75 60.5 117t146.5 42q50 0 77 -16v72q0 85 -74 85q-44 0 -60.5 -26t-5.5 -69l-117 13q-18 81 37 121.5t153 40.5q189 0 189 -165v-221q0 -34 20 -34q8 0 16 4t12 8l4 4l7 -87q-34 -25 -82 -25q-79 0 -91 77q-44 -82 -141 -82q-65 0 -108 39.5t-43 101.5z M219 76q50 0 96 51v86q-4 0 -17 0.5t-22 0.5q-124 0 -124 -77q0 -30 18 -45.5t49 -15.5zM235 567l-169 158h137l125 -158h-93z" />
<glyph unicode="&#xe1;" horiz-adv-x="513" d="M31 129q0 75 60.5 117t146.5 42q50 0 77 -16v72q0 85 -74 85q-44 0 -60.5 -26t-5.5 -69l-117 13q-18 81 37 121.5t153 40.5q189 0 189 -165v-221q0 -34 20 -34q8 0 16 4t12 8l4 4l7 -87q-34 -25 -82 -25q-79 0 -91 77q-44 -82 -141 -82q-65 0 -108 39.5t-43 101.5z M219 76q50 0 96 51v86q-4 0 -17 0.5t-22 0.5q-124 0 -124 -77q0 -30 18 -45.5t49 -15.5zM429 725l-168 -158h-94l125 158h137z" />
<glyph unicode="&#xe2;" horiz-adv-x="513" d="M31 129q0 75 60.5 117t146.5 42q50 0 77 -16v72q0 85 -74 85q-44 0 -60.5 -26t-5.5 -69l-117 13q-18 81 37 121.5t153 40.5q189 0 189 -165v-221q0 -34 20 -34q8 0 16 4t12 8l4 4l7 -87q-34 -25 -82 -25q-79 0 -91 77q-44 -82 -141 -82q-65 0 -108 39.5t-43 101.5z M169 567h-87l113 158h103l112 -158h-86l-78 92zM219 76q50 0 96 51v86q-4 0 -17 0.5t-22 0.5q-124 0 -124 -77q0 -30 18 -45.5t49 -15.5z" />
<glyph unicode="&#xe3;" horiz-adv-x="513" d="M31 129q0 75 60.5 117t146.5 42q50 0 77 -16v72q0 85 -74 85q-44 0 -60.5 -26t-5.5 -69l-117 13q-18 81 37 121.5t153 40.5q189 0 189 -165v-221q0 -34 20 -34q8 0 16 4t12 8l4 4l7 -87q-34 -25 -82 -25q-79 0 -91 77q-44 -82 -141 -82q-65 0 -108 39.5t-43 101.5z M140 587l-61 11q7 59 37 87.5t69 28.5q33 0 70.5 -25.5t56.5 -25.5q33 0 43 48l60 -11q-7 -59 -37 -88t-68 -29q-33 0 -71 25.5t-56 25.5q-35 0 -43 -47zM219 76q50 0 96 51v86q-4 0 -17 0.5t-22 0.5q-124 0 -124 -77q0 -30 18 -45.5t49 -15.5z" />
<glyph unicode="&#xe4;" horiz-adv-x="513" d="M31 129q0 75 60.5 117t146.5 42q50 0 77 -16v72q0 85 -74 85q-44 0 -60.5 -26t-5.5 -69l-117 13q-18 81 37 121.5t153 40.5q189 0 189 -165v-221q0 -34 20 -34q8 0 16 4t12 8l4 4l7 -87q-34 -25 -82 -25q-79 0 -91 77q-44 -82 -141 -82q-65 0 -108 39.5t-43 101.5z M219 76q50 0 96 51v86q-4 0 -17 0.5t-22 0.5q-124 0 -124 -77q0 -30 18 -45.5t49 -15.5zM107 597v108h102v-108h-102zM287 597v108h102v-108h-102z" />
<glyph unicode="&#xe5;" horiz-adv-x="513" d="M31 129q0 75 60.5 117t146.5 42q50 0 77 -16v72q0 85 -74 85q-44 0 -60.5 -26t-5.5 -69l-117 13q-18 81 37 121.5t153 40.5q189 0 189 -165v-221q0 -34 20 -34q8 0 16 4t12 8l4 4l7 -87q-34 -25 -82 -25q-79 0 -91 77q-44 -82 -141 -82q-65 0 -108 39.5t-43 101.5z M247 556q-41 0 -70 23t-29 67q0 45 28.5 67t70.5 22t71 -22t29 -67q0 -44 -29 -67t-71 -23zM219 76q50 0 96 51v86q-4 0 -17 0.5t-22 0.5q-124 0 -124 -77q0 -30 18 -45.5t49 -15.5zM247 604q46 0 46 43q0 42 -46 42q-20 0 -33 -11t-13 -31q0 -21 13 -32t33 -11z" />
<glyph unicode="&#xe6;" horiz-adv-x="780" d="M31 131q0 76 61.5 119.5t146.5 43.5q50 0 78 -16v66q0 85 -77 85q-44 0 -60 -24.5t-5 -65.5l-117 13q-18 78 37 117.5t151 39.5q108 0 148 -66q55 66 151 66q98 0 147.5 -59t49.5 -167q0 -19 -2 -61h-302q3 -82 31.5 -114t79.5 -32q42 0 67 19.5t21 58.5l100 -14 q8 -70 -47 -111t-143 -41q-139 0 -196 98q-20 -44 -63.5 -71t-99.5 -27q-68 0 -112.5 39.5t-44.5 103.5zM152 139q0 -63 72 -63q57 0 109 50q-15 42 -16 94h-39q-126 0 -126 -81zM440 297h177v27q0 51 -19.5 79.5t-56.5 28.5q-87 0 -101 -135z" />
<glyph unicode="&#xe7;" horiz-adv-x="487" d="M210 -97l14 87q-86 10 -136 71t-50 175q0 129 55 201t172 72q82 0 134.5 -34.5t52.5 -99.5q0 -23 -5 -40l-113 -13q6 24 6 38q0 32 -19 50.5t-56 18.5q-99 0 -99 -199q0 -154 103 -154q39 0 61 20t22 56l-1 15l101 -14v-14q0 -64 -47.5 -105.5t-127.5 -44.5l-9 -45 q73 -13 73 -75q0 -39 -29 -63t-70 -24q-58 0 -87 35l21 49q22 -31 59 -31q39 0 39 35q0 32 -43 33h-21z" />
<glyph unicode="&#xe8;" horiz-adv-x="506" d="M37 237q0 54 12.5 100.5t38 86t71 62.5t106.5 23q103 0 153 -59t50 -168q0 -14 -2 -50h-303q1 -156 109 -156q38 0 65 17.5t27 52.5q0 2 -0.5 6t-0.5 7l100 -14q1 -5 1 -17q0 -65 -56 -102.5t-140 -37.5q-105 0 -168 62.5t-63 186.5zM251 567l-169 158h137l125 -158h-93z M264 432q-79 0 -97 -125h176v17q0 47 -19.5 77.5t-59.5 30.5z" />
<glyph unicode="&#xe9;" horiz-adv-x="506" d="M37 237q0 54 12.5 100.5t38 86t71 62.5t106.5 23q103 0 153 -59t50 -168q0 -14 -2 -50h-303q1 -156 109 -156q38 0 65 17.5t27 52.5q0 2 -0.5 6t-0.5 7l100 -14q1 -5 1 -17q0 -65 -56 -102.5t-140 -37.5q-105 0 -168 62.5t-63 186.5zM444 725l-168 -158h-94l125 158h137z M264 432q-79 0 -97 -125h176v17q0 47 -19.5 77.5t-59.5 30.5z" />
<glyph unicode="&#xea;" horiz-adv-x="506" d="M37 237q0 54 12.5 100.5t38 86t71 62.5t106.5 23q103 0 153 -59t50 -168q0 -14 -2 -50h-303q1 -156 109 -156q38 0 65 17.5t27 52.5q0 2 -0.5 6t-0.5 7l100 -14q1 -5 1 -17q0 -65 -56 -102.5t-140 -37.5q-105 0 -168 62.5t-63 186.5zM185 567h-87l113 158h103l112 -158 h-86l-78 92zM264 432q-79 0 -97 -125h176v17q0 47 -19.5 77.5t-59.5 30.5z" />
<glyph unicode="&#xeb;" horiz-adv-x="506" d="M37 237q0 54 12.5 100.5t38 86t71 62.5t106.5 23q103 0 153 -59t50 -168q0 -14 -2 -50h-303q1 -156 109 -156q38 0 65 17.5t27 52.5q0 2 -0.5 6t-0.5 7l100 -14q1 -5 1 -17q0 -65 -56 -102.5t-140 -37.5q-105 0 -168 62.5t-63 186.5zM264 432q-79 0 -97 -125h176v17 q0 47 -19.5 77.5t-59.5 30.5zM303 597v108h102v-108h-102zM123 597v108h102v-108h-102z" />
<glyph unicode="&#xec;" horiz-adv-x="251" d="M64 0v497h123v-497h-123zM114 567l-169 158h137l125 -158h-93z" />
<glyph unicode="&#xed;" horiz-adv-x="251" d="M307 725l-168 -158h-94l125 158h137zM64 0v497h123v-497h-123z" />
<glyph unicode="&#xee;" horiz-adv-x="251" d="M48 567h-87l113 158h103l112 -158h-86l-78 92zM64 0v497h123v-497h-123z" />
<glyph unicode="&#xef;" horiz-adv-x="251" d="M-14 597v108h102v-108h-102zM166 597v108h102v-108h-102zM64 0v497h123v-497h-123z" />
<glyph unicode="&#xf0;" horiz-adv-x="539" d="M130 467l-43 52l112 87q-64 33 -140 42l16 80q102 -6 205 -59l101 79l41 -52l-81 -64q156 -119 156 -339q0 -137 -61 -221t-181 -84q-106 0 -164 64t-58 163t58.5 157t151.5 58q92 0 129 -69q-16 128 -114 206zM257 70q53 0 82.5 49t35.5 133l-1 -5q5 40 -28 70t-84 30 q-105 0 -105 -135q0 -62 24.5 -102t75.5 -40z" />
<glyph unicode="&#xf1;" horiz-adv-x="536" d="M64 0v497h93l15 -81q31 46 66.5 69.5t89.5 23.5q67 0 107.5 -38.5t40.5 -114.5v-356h-123v332q0 41 -16 59.5t-50 18.5q-54 0 -100 -48v-362h-123zM171 587l-61 11q7 59 37 87.5t69 28.5q33 0 70.5 -25.5t56.5 -25.5q33 0 43 48l60 -11q-7 -59 -37 -88t-68 -29 q-33 0 -71 25.5t-56 25.5q-35 0 -43 -47z" />
<glyph unicode="&#xf2;" horiz-adv-x="524" d="M39 251q0 133 60.5 195.5t162.5 62.5t163.5 -64t61.5 -198t-61.5 -196.5t-160.5 -62.5q-103 0 -164.5 63.5t-61.5 199.5zM264 70q98 0 98 178q0 179 -100 179q-98 0 -98 -175q0 -182 100 -182zM252 567l-169 158h137l125 -158h-93z" />
<glyph unicode="&#xf3;" horiz-adv-x="524" d="M445 725l-168 -158h-94l125 158h137zM39 251q0 133 60.5 195.5t162.5 62.5t163.5 -64t61.5 -198t-61.5 -196.5t-160.5 -62.5q-103 0 -164.5 63.5t-61.5 199.5zM264 70q98 0 98 178q0 179 -100 179q-98 0 -98 -175q0 -182 100 -182z" />
<glyph unicode="&#xf4;" horiz-adv-x="524" d="M186 567h-87l113 158h103l112 -158h-86l-78 92zM39 251q0 133 60.5 195.5t162.5 62.5t163.5 -64t61.5 -198t-61.5 -196.5t-160.5 -62.5q-103 0 -164.5 63.5t-61.5 199.5zM264 70q98 0 98 178q0 179 -100 179q-98 0 -98 -175q0 -182 100 -182z" />
<glyph unicode="&#xf5;" horiz-adv-x="524" d="M39 251q0 133 60.5 195.5t162.5 62.5t163.5 -64t61.5 -198t-61.5 -196.5t-160.5 -62.5q-103 0 -164.5 63.5t-61.5 199.5zM264 70q98 0 98 178q0 179 -100 179q-98 0 -98 -175q0 -182 100 -182zM157 587l-61 11q7 59 37 87.5t69 28.5q33 0 70.5 -25.5t56.5 -25.5 q33 0 43 48l60 -11q-7 -59 -37 -88t-68 -29q-33 0 -71 25.5t-56 25.5q-35 0 -43 -47z" />
<glyph unicode="&#xf6;" horiz-adv-x="524" d="M124 597v108h102v-108h-102zM304 597v108h102v-108h-102zM39 251q0 133 60.5 195.5t162.5 62.5t163.5 -64t61.5 -198t-61.5 -196.5t-160.5 -62.5q-103 0 -164.5 63.5t-61.5 199.5zM264 70q98 0 98 178q0 179 -100 179q-98 0 -98 -175q0 -182 100 -182z" />
<glyph unicode="&#xf7;" d="M40 224v94h470v-94h-470zM215 405v126h121v-126h-121zM215 12v127h121v-127h-121z" />
<glyph unicode="&#xf8;" horiz-adv-x="511" d="M28 -60l69 112q-59 67 -59 199q0 133 59 195.5t158 62.5q62 0 108 -25l45 73h72l-68 -110q62 -69 62 -200q0 -134 -60 -196.5t-156 -62.5q-66 0 -114 26l-45 -74h-71zM257 67q100 0 100 181q0 53 -10 95l-153 -249v-1q23 -26 63 -26zM156 252q0 -58 7 -92l152 246 q-24 24 -60 24q-99 0 -99 -178z" />
<glyph unicode="&#xf9;" horiz-adv-x="530" d="M60 141v356h123v-332q0 -41 15 -59.5t48 -18.5q51 0 96 47v363h123v-410l11 -87h-93l-28 78q-62 -90 -148 -90q-67 0 -107 38.5t-40 114.5zM250 567l-169 158h137l125 -158h-93z" />
<glyph unicode="&#xfa;" horiz-adv-x="530" d="M60 141v356h123v-332q0 -41 15 -59.5t48 -18.5q51 0 96 47v363h123v-410l11 -87h-93l-28 78q-62 -90 -148 -90q-67 0 -107 38.5t-40 114.5zM443 725l-168 -158h-94l125 158h137z" />
<glyph unicode="&#xfb;" horiz-adv-x="530" d="M60 141v356h123v-332q0 -41 15 -59.5t48 -18.5q51 0 96 47v363h123v-410l11 -87h-93l-28 78q-62 -90 -148 -90q-67 0 -107 38.5t-40 114.5zM184 567h-87l113 158h103l112 -158h-86l-78 92z" />
<glyph unicode="&#xfc;" horiz-adv-x="530" d="M60 141v356h123v-332q0 -41 15 -59.5t48 -18.5q51 0 96 47v363h123v-410l11 -87h-93l-28 78q-62 -90 -148 -90q-67 0 -107 38.5t-40 114.5zM302 597v108h102v-108h-102zM122 597v108h102v-108h-102z" />
<glyph unicode="&#xfd;" horiz-adv-x="498" d="M45 -87q25 -25 66 -25q62 0 84 65l11 31l-194 513h131l95 -273l23 -93h4q14 60 24 93l84 273h110l-189 -563q-49 -147 -177 -147q-26 0 -48 7t-31 14l-10 7zM438 725l-168 -158h-94l125 158h137z" />
<glyph unicode="&#xfe;" horiz-adv-x="539" d="M64 -206v921h123v-270q49 64 129 64q32 0 62.5 -12.5t59 -39.5t46 -79t17.5 -122q0 -74 -19 -128.5t-50 -83.5t-64.5 -42.5t-69.5 -13.5q-73 0 -111 51v-245h-123zM278 417q-52 0 -91 -46v-257q33 -35 82 -35q107 0 107 172q0 166 -98 166z" />
<glyph unicode="&#xff;" horiz-adv-x="498" d="M45 -87q25 -25 66 -25q62 0 84 65l11 31l-194 513h131l95 -273l23 -93h4q14 60 24 93l84 273h110l-189 -563q-49 -147 -177 -147q-26 0 -48 7t-31 14l-10 7zM117 597v108h102v-108h-102zM297 597v108h102v-108h-102z" />
<glyph unicode="&#x152;" horiz-adv-x="880" d="M42 343q0 164 86.5 248t244.5 84h462v-99h-290v-177h245v-99h-245v-201h300v-99h-472q-159 0 -245 87.5t-86 255.5zM173 341q0 -243 217 -243h26v480h-26q-217 0 -217 -237z" />
<glyph unicode="&#x153;" horiz-adv-x="824" d="M38 250q0 134 60.5 196.5t159.5 62.5q107 0 164 -78q60 78 164 78q99 0 149.5 -59t50.5 -166q0 -16 -2 -52h-303q1 -60 15 -93q25 -63 93 -63q39 0 66 17.5t27 52.5q0 2 -0.5 6t-0.5 7l100 -14q1 -5 1 -17q0 -65 -56 -102.5t-138 -37.5q-108 0 -168 75q-58 -75 -160 -75 q-99 0 -160.5 63.5t-61.5 198.5zM163 251q0 -181 100 -181q98 0 98 177q0 180 -101 180q-97 0 -97 -176zM485 307h176v18q0 46 -20 76.5t-59 30.5q-79 0 -97 -125z" />
<glyph unicode="&#x178;" horiz-adv-x="574" d="M223 0v285l-220 390h146l113 -204l35 -70h4q17 38 34 70l111 204h121l-215 -390v-285h-129zM155 762v108h102v-108h-102zM335 762v108h102v-108h-102z" />
<glyph unicode="&#x2c6;" horiz-adv-x="502" d="M174 567h-87l113 158h103l112 -158h-86l-78 92z" />
<glyph unicode="&#x2dc;" horiz-adv-x="502" d="M146 587l-61 11q7 59 37 87.5t69 28.5q33 0 70.5 -25.5t56.5 -25.5q33 0 43 48l60 -11q-7 -59 -37 -88t-68 -29q-33 0 -71 25.5t-56 25.5q-35 0 -43 -47z" />
<glyph unicode="&#x2000;" horiz-adv-x="449" />
<glyph unicode="&#x2001;" horiz-adv-x="899" />
<glyph unicode="&#x2002;" horiz-adv-x="449" />
<glyph unicode="&#x2003;" horiz-adv-x="899" />
<glyph unicode="&#x2004;" horiz-adv-x="299" />
<glyph unicode="&#x2005;" horiz-adv-x="224" />
<glyph unicode="&#x2006;" horiz-adv-x="149" />
<glyph unicode="&#x2007;" horiz-adv-x="149" />
<glyph unicode="&#x2008;" horiz-adv-x="112" />
<glyph unicode="&#x2009;" horiz-adv-x="179" />
<glyph unicode="&#x200a;" horiz-adv-x="49" />
<glyph unicode="&#x2010;" horiz-adv-x="380" d="M57 208v110h267v-110h-267z" />
<glyph unicode="&#x2011;" horiz-adv-x="380" d="M57 208v110h267v-110h-267z" />
<glyph unicode="&#x2012;" horiz-adv-x="380" d="M57 208v110h267v-110h-267z" />
<glyph unicode="&#x2013;" horiz-adv-x="595" d="M59 214v93h477v-93h-477z" />
<glyph unicode="&#x2014;" horiz-adv-x="815" d="M59 214v93h697v-93h-697z" />
<glyph unicode="&#x2018;" horiz-adv-x="242" d="M54 388v163q0 55 31.5 97.5t90.5 59.5l24 -53q-42 -8 -63 -40t-21 -72v-22h63v-133h-125z" />
<glyph unicode="&#x2019;" horiz-adv-x="235" d="M66 381l-24 52q43 8 64 40t21 72v23h-63v132h125v-162q0 -55 -31.5 -98t-91.5 -59z" />
<glyph unicode="&#x201a;" horiz-adv-x="243" d="M60 0v133h125v-163q0 -55 -31.5 -98t-90.5 -59l-24 52q42 8 63 40t21 72v23h-63z" />
<glyph unicode="&#x201c;" horiz-adv-x="427" d="M239 388v163q0 55 31.5 97.5t91.5 59.5l24 -53q-43 -8 -64 -39.5t-21 -72.5v-22h63v-133h-125zM54 388v163q0 55 29.5 97.5t85.5 59.5l24 -53q-38 -8 -57.5 -40t-19.5 -72v-22h63v-133h-125z" />
<glyph unicode="&#x201d;" horiz-adv-x="421" d="M259 381l-24 52q38 8 57.5 40t19.5 72v23h-63v132h125v-162q0 -55 -29.5 -98t-85.5 -59zM66 381l-24 52q43 8 64 40t21 72v23h-63v132h125v-162q0 -55 -31.5 -98t-91.5 -59z" />
<glyph unicode="&#x201e;" horiz-adv-x="428" d="M60 0v133h125v-163q0 -55 -31.5 -98t-90.5 -59l-24 52q42 8 63 40t21 72v23h-63zM245 0v133h125v-163q0 -55 -29.5 -98t-85.5 -59l-24 52q39 8 58 40t19 72v23h-63z" />
<glyph unicode="&#x2022;" horiz-adv-x="484" d="M242 119q-73 0 -124.5 51.5t-51.5 124.5t51.5 124.5t124.5 51.5q74 0 125 -51.5t51 -124.5t-51.5 -124.5t-124.5 -51.5z" />
<glyph unicode="&#x2026;" horiz-adv-x="804" d="M57 0v135h125v-135h-125zM341 0v135h125v-135h-125zM622 0v135h125v-135h-125z" />
<glyph unicode="&#x202f;" horiz-adv-x="179" />
<glyph unicode="&#x2039;" horiz-adv-x="360" d="M196 49l-171 198l172 200h120l-174 -199l174 -199h-121z" />
<glyph unicode="&#x203a;" horiz-adv-x="360" d="M44 49l174 199l-174 199h119l172 -200l-171 -198h-120z" />
<glyph unicode="&#x205f;" horiz-adv-x="224" />
<glyph unicode="&#x20ac;" d="M18 384v69h76q44 234 267 234q107 0 163 -52l-40 -88q-41 44 -114 44q-122 0 -151 -138h241v-69h-249q-1 -16 -1 -49q0 -30 1 -44h249v-69h-239q30 -137 146 -137q76 0 125 56l43 -88q-61 -65 -176 -65q-221 0 -264 234h-77v69h68q-1 15 -1 47q0 31 1 46h-68z" />
<glyph unicode="&#x2122;" horiz-adv-x="831" d="M392 352v323h107l80 -164l82 164h102v-323h-70v236l-102 -203h-28l-100 204v-237h-71zM162 352v259h-110v64h294v-64h-112v-259h-72z" />
<glyph unicode="&#x25fc;" horiz-adv-x="495" d="M0 495h495v-495h-495v495z" />
</font>
</defs>
</svg>
